<?xml version="1.0" encoding="UTF-8" standalone="no"?>
<svg
   xmlns:dc="http://purl.org/dc/elements/1.1/"
   xmlns:cc="http://creativecommons.org/ns#"
   xmlns:rdf="http://www.w3.org/1999/02/22-rdf-syntax-ns#"
   xmlns:svg="http://www.w3.org/2000/svg"
   xmlns="http://www.w3.org/2000/svg"
   xmlns:sodipodi="http://sodipodi.sourceforge.net/DTD/sodipodi-0.dtd"
   xmlns:inkscape="http://www.inkscape.org/namespaces/inkscape"
   enable-background="new 0 0 128 128"
   version="1.1"
   viewBox="0 0 128 128"
   xml:space="preserve"
   id="svg2"
   inkscape:version="0.91 r13725"
   sodipodi:docname="BRM_COMMON.svg"><metadata
     id="metadata14"><rdf:RDF><cc:Work
         rdf:about=""><dc:format>image/svg+xml</dc:format><dc:type
           rdf:resource="http://purl.org/dc/dcmitype/StillImage" /><dc:title></dc:title></cc:Work></rdf:RDF></metadata><defs
     id="defs12" /><sodipodi:namedview
     pagecolor="#ffffff"
     bordercolor="#666666"
     borderopacity="1"
     objecttolerance="10"
     gridtolerance="10"
     guidetolerance="10"
     inkscape:pageopacity="0"
     inkscape:pageshadow="2"
     inkscape:window-width="1920"
     inkscape:window-height="1001"
     id="namedview10"
     showgrid="false"
     inkscape:zoom="5.2149125"
     inkscape:cx="84.422922"
     inkscape:cy="64.258928"
     inkscape:window-x="0"
     inkscape:window-y="36"
     inkscape:window-maximized="1"
     inkscape:current-layer="svg2" /><path
     d="m56.167 106h-49.562s-2.609-1.277 0-5.935 30.371-51.877 30.371-51.877 2.236-2.648 4.658-0.226 29.253 27.763 29.253 27.763l-25.713 9.32s-3.726 1.999-1.491 4.608c2.236 2.609 12.484 16.347 12.484 16.347z"
     id="path4"
     style="fill:#ffffff;fill-opacity:1" /><path
     d="m48.837 88.513l20 17.487h11.552l11.179-17.487s1.491-3.74 3.726 0.359 9.503 17.128 9.503 17.128h15.465s3.726-1.277 1.677-5.562-18.632-35.297-18.632-35.297-3.511-5.766-7.144-0.179l-4.163 3.735v2.515l-43.163 17.301z"
     id="path6"
     style="fill:#ffffff;fill-opacity:1" /><path
     d="m92.127 68.045l-12.484 4.658-31.302-22.917 15.659-24.409s4.091-5.403 6.886 0c2.795 5.404 21.241 42.668 21.241 42.668z"
     id="path8"
     style="fill:#ffffff;fill-opacity:1" /></svg>