<?xml version="1.0" encoding="UTF-8" standalone="no"?>
<svg
   xmlns:dc="http://purl.org/dc/elements/1.1/"
   xmlns:cc="http://creativecommons.org/ns#"
   xmlns:rdf="http://www.w3.org/1999/02/22-rdf-syntax-ns#"
   xmlns:svg="http://www.w3.org/2000/svg"
   xmlns="http://www.w3.org/2000/svg"
   xmlns:sodipodi="http://sodipodi.sourceforge.net/DTD/sodipodi-0.dtd"
   xmlns:inkscape="http://www.inkscape.org/namespaces/inkscape"
   enable-background="new 0 0 128 128"
   version="1.1"
   viewBox="0 0 128 128"
   xml:space="preserve"
   id="svg4974"
   inkscape:version="0.91 r13725"
   sodipodi:docname="GANGS_COMMON.svg"><metadata
     id="metadata4982"><rdf:RDF><cc:Work
         rdf:about=""><dc:format>image/svg+xml</dc:format><dc:type
           rdf:resource="http://purl.org/dc/dcmitype/StillImage" /><dc:title></dc:title></cc:Work></rdf:RDF></metadata><defs
     id="defs4980" /><sodipodi:namedview
     pagecolor="#ffffff"
     bordercolor="#666666"
     borderopacity="1"
     objecttolerance="10"
     gridtolerance="10"
     guidetolerance="10"
     inkscape:pageopacity="0"
     inkscape:pageshadow="2"
     inkscape:window-width="957"
     inkscape:window-height="1001"
     id="namedview4978"
     showgrid="false"
     inkscape:zoom="1.84375"
     inkscape:cx="2.440678"
     inkscape:cy="64"
     inkscape:window-x="960"
     inkscape:window-y="36"
     inkscape:window-maximized="0"
     inkscape:current-layer="svg4974" /><path
     d="m104.88 54.812c6.882-1.761 11.683-6.402 13.924-11.843 1.61-3.91 4.321-10.883-6.562-23.207-10.788-12.217-29.288 3.04-29.288 3.04-9.923-4.961-13.853-4.381-20.006-1.761-8.642 3.682-13.284 15.685-13.284 15.685-2.721-0.16-9.763-1.12-16.805 4.481s-8.269 20.486-8.269 20.486c-2.721-0.16-12.945 1.139-15.898 12.484-3.04 11.683 0.778 19.946 11.364 26.728 10.243 6.562 22.406-3.521 25.127-5.282s3.841-0.64 3.841-0.64 1.761 1.761 2.881 3.681c0 0 1.44 1.761-0.48 3.681-2.333 2.333-3.521 3.041-3.521 3.041-1.395 1.502-1.921 3.201-1.44 4.961 0.48 1.761 1.921 3.841 10.243 1.761 4.836-1.209 20.806-8.002 36.01-17.445s24.167-24.167 25.287-26.888-1.12-4.641-2.561-5.282c-1.44-0.64-2.881 0.16-5.442 1.761-2.561 1.6-4.641 0-4.641 0s-3.041-3.041-4.001-4.961c-1.219-2.438 0.539-3.718 3.521-4.481zm-36.437-25.98c7.248-1.953 14.911 3.094 17.115 11.274s-1.885 16.394-9.133 18.347-14.911-3.094-17.115-11.274 1.885-16.394 9.133-18.347zm-34.996 65.488c-5.84 3.746-13.838 1.697-17.864-4.579-4.026-6.275-2.168-15.979 3.673-19.725 5.84-3.747 13.451-0.117 17.477 6.158 4.025 6.275 2.554 14.399-3.286 18.146zm2.047-30.634c-3.23-7.27-0.937-15.345 5.121-18.037s13.588 1.02 16.818 8.29 0.937 15.345-5.121 18.037-13.588-1.02-16.818-8.29zm58.343 14.332c-7.169 9.558-12.003 11.363-15.204 12.964-3.201 1.6-15.204 5.602-21.766 0.48-6.562-5.121-6.242-10.563-6.242-10.563s12.644-6.082 16.165-16.165c0 0 12.644 3.521 23.207-6.402-1e-3 1e-3 10.082 11.364 3.84 19.686zm-3.945-41.394c-1.181-7.293 3.137-14.059 9.643-15.113 6.506-1.053 12.738 4.005 13.919 11.298s-3.137 14.059-9.643 15.113c-6.506 1.053-12.738-4.005-13.919-11.298z"
     id="path4976"
     style="fill:#ffffff;fill-opacity:1" /></svg>