<?xml version="1.0" encoding="UTF-8" standalone="no"?>
<svg
   xmlns:dc="http://purl.org/dc/elements/1.1/"
   xmlns:cc="http://creativecommons.org/ns#"
   xmlns:rdf="http://www.w3.org/1999/02/22-rdf-syntax-ns#"
   xmlns:svg="http://www.w3.org/2000/svg"
   xmlns="http://www.w3.org/2000/svg"
   xmlns:sodipodi="http://sodipodi.sourceforge.net/DTD/sodipodi-0.dtd"
   xmlns:inkscape="http://www.inkscape.org/namespaces/inkscape"
   enable-background="new 0 0 128 128"
   version="1.1"
   viewBox="0 0 128 128"
   xml:space="preserve"
   id="svg5659"
   inkscape:version="0.91 r13725"
   sodipodi:docname="GVG_RARE.svg"><metadata
     id="metadata5683"><rdf:RDF><cc:Work
         rdf:about=""><dc:format>image/svg+xml</dc:format><dc:type
           rdf:resource="http://purl.org/dc/dcmitype/StillImage" /><dc:title></dc:title></cc:Work></rdf:RDF></metadata><defs
     id="defs5681" /><sodipodi:namedview
     pagecolor="#ffffff"
     bordercolor="#666666"
     borderopacity="1"
     objecttolerance="10"
     gridtolerance="10"
     guidetolerance="10"
     inkscape:pageopacity="0"
     inkscape:pageshadow="2"
     inkscape:window-width="957"
     inkscape:window-height="1001"
     id="namedview5679"
     showgrid="false"
     inkscape:zoom="1.84375"
     inkscape:cx="26.033898"
     inkscape:cy="42.305085"
     inkscape:window-x="960"
     inkscape:window-y="36"
     inkscape:window-maximized="0"
     inkscape:current-layer="svg5659" /><path
     d="m39.618 29.759l-2.832-9.175c-0.833-2.32-0.525-2.973 1.795-3.805l15.052-5.402c2.32-0.833 2.973-0.525 3.805 1.795l3.617 8.884"
     id="path5661"
     style="fill:#3576da;fill-opacity:1" /><path
     d="m22.515 61.246l-8.939-3.506c-2.333-0.795-2.651-1.443-1.856-3.776l5.161-15.136c0.795-2.333 1.443-2.651 3.776-1.856l9.201 2.711"
     id="path5663"
     style="fill:#3576da;fill-opacity:1" /><path
     d="m36.47 94.249l-8.314 4.803c-2.076 1.328-2.781 1.173-4.109-0.903l-8.617-13.473c-1.328-2.076-1.173-2.781 0.903-4.109l7.856-5.503"
     id="path5665"
     style="fill:#3576da;fill-opacity:1" /><path
     d="m70.974 103.92l-1.429 9.495c-0.256 2.451-0.817 2.906-3.268 2.65l-15.905-1.663c-2.451-0.256-2.906-0.817-2.65-3.268l0.595-9.573"
     id="path5667"
     style="fill:#3576da;fill-opacity:1" /><path
     d="m100.04 82.964l6.533 7.037c1.757 1.729 1.763 2.451 0.034 4.207l-11.216 11.399c-1.729 1.757-2.451 1.763-4.207 0.034l-7.114-6.434"
     id="path5669"
     style="fill:#3576da;fill-opacity:1" /><path
     d="m101.79 47.174l9.575-0.72c2.447-0.296 3.015 0.15 3.311 2.597l1.919 15.876c0.296 2.447-0.15 3.015-2.597 3.311l-9.466 1.55"
     id="path5671"
     style="fill:#3576da;fill-opacity:1" /><path
     d="m74.892 23.497l5.406-7.935c1.294-2.098 1.997-2.264 4.094-0.97l13.609 8.398c2.098 1.294 2.264 1.997 0.97 4.094l-4.689 8.367"
     id="path5673"
     style="fill:#3576da;fill-opacity:1" /><path
     d="m77.997 58.346c2.775 7.733-1.244 16.251-8.977 19.027s-16.251-1.244-19.027-8.977c-2.775-7.733 1.244-16.251 8.977-19.027 7.733-2.775 16.251 1.244 19.027 8.977zm15.927-5.716c-5.967-16.626-24.281-25.267-40.907-19.3s-25.267 24.281-19.3 40.907 24.281 25.267 40.907 19.3 25.266-24.281 19.3-40.907z"
     id="path5675"
     style="fill:#3576da;fill-opacity:1" /><path
     d="m96.549 51.688c6.487 18.076-2.908 37.988-20.983 44.475-18.076 6.487-37.988-2.908-44.475-20.983s2.908-37.988 20.983-44.475 37.988 2.907 44.475 20.983zm-46.736-27.284c-21.459 7.701-32.612 31.34-24.911 52.799s31.34 32.612 52.799 24.911 32.612-31.34 24.911-52.799-31.34-32.612-52.799-24.911z"
     id="path5677"
     style="fill:#3576da;fill-opacity:1" /></svg>