<?xml version="1.0" encoding="UTF-8" standalone="no"?>
<svg
   xmlns:dc="http://purl.org/dc/elements/1.1/"
   xmlns:cc="http://creativecommons.org/ns#"
   xmlns:rdf="http://www.w3.org/1999/02/22-rdf-syntax-ns#"
   xmlns:svg="http://www.w3.org/2000/svg"
   xmlns="http://www.w3.org/2000/svg"
   xmlns:sodipodi="http://sodipodi.sourceforge.net/DTD/sodipodi-0.dtd"
   xmlns:inkscape="http://www.inkscape.org/namespaces/inkscape"
   enable-background="new 0 0 128 128"
   version="1.1"
   viewBox="0 0 128 128"
   xml:space="preserve"
   id="svg8429"
   inkscape:version="0.91 r13725"
   sodipodi:docname="KARA_COMMON.svg"><metadata
     id="metadata8437"><rdf:RDF><cc:Work
         rdf:about=""><dc:format>image/svg+xml</dc:format><dc:type
           rdf:resource="http://purl.org/dc/dcmitype/StillImage" /><dc:title></dc:title></cc:Work></rdf:RDF></metadata><defs
     id="defs8435" /><sodipodi:namedview
     pagecolor="#ffffff"
     bordercolor="#666666"
     borderopacity="1"
     objecttolerance="10"
     gridtolerance="10"
     guidetolerance="10"
     inkscape:pageopacity="0"
     inkscape:pageshadow="2"
     inkscape:window-width="957"
     inkscape:window-height="1001"
     id="namedview8433"
     showgrid="false"
     inkscape:zoom="1.84375"
     inkscape:cx="-39.050847"
     inkscape:cy="64"
     inkscape:window-x="960"
     inkscape:window-y="36"
     inkscape:window-maximized="0"
     inkscape:current-layer="svg8429" /><path
     d="m66 11h4v11h12v-11h8.992s3.998-0.929 3.998 1.837c0 4.097 0.095 23.839 0.095 23.839s-3.046 9.324-9.233 9.324h-44.404c-6.187 0-8.4-9.904-8.4-9.904s0.095-18.397 0.095-22.495c0-2.945 3.998-2.601 3.998-2.601h4.859v11h11v-11h13m-1.278 87h-32.722v-9.082c9-9.614 10-25.985 10-25.985v-13.933h39v13.933s1 16.372 10 25.985v9.082h-26.278zm-2.722-38.351l-6 6.52v15.831h12v-15.831l-6-6.52zm-39 43.261v11.208c0 4.64 6.314 6.882 6.314 6.882s66.533 0 70.531 0 2.156-6.668 2.156-6.668 0-6.282 0-11.065c0-3.642-3.012-1.267-3.012-1.267h-69.674c-1e-3 0-6.315-2.167-6.315 0.91z"
     id="path8431"
     style="fill:#ffffff;fill-opacity:1" /></svg>