<?xml version="1.0" encoding="UTF-8" standalone="no"?>
<svg
   xmlns:dc="http://purl.org/dc/elements/1.1/"
   xmlns:cc="http://creativecommons.org/ns#"
   xmlns:rdf="http://www.w3.org/1999/02/22-rdf-syntax-ns#"
   xmlns:svg="http://www.w3.org/2000/svg"
   xmlns="http://www.w3.org/2000/svg"
   xmlns:sodipodi="http://sodipodi.sourceforge.net/DTD/sodipodi-0.dtd"
   xmlns:inkscape="http://www.inkscape.org/namespaces/inkscape"
   enable-background="new 0 0 128 128"
   version="1.1"
   viewBox="0 0 128 128"
   xml:space="preserve"
   id="svg4305"
   inkscape:version="0.91 r13725"
   sodipodi:docname="TGT_EPIC.svg"><metadata
     id="metadata4313"><rdf:RDF><cc:Work
         rdf:about=""><dc:format>image/svg+xml</dc:format><dc:type
           rdf:resource="http://purl.org/dc/dcmitype/StillImage" /><dc:title></dc:title></cc:Work></rdf:RDF></metadata><defs
     id="defs4311" /><sodipodi:namedview
     pagecolor="#ffffff"
     bordercolor="#666666"
     borderopacity="1"
     objecttolerance="10"
     gridtolerance="10"
     guidetolerance="10"
     inkscape:pageopacity="0"
     inkscape:pageshadow="2"
     inkscape:window-width="957"
     inkscape:window-height="1001"
     id="namedview4309"
     showgrid="false"
     inkscape:zoom="1.84375"
     inkscape:cx="64"
     inkscape:cy="64"
     inkscape:window-x="960"
     inkscape:window-y="36"
     inkscape:window-maximized="0"
     inkscape:current-layer="svg4305" /><path
     d="m97.467 20h14.298c5.169 80-47.765 98.891-47.765 98.891s-52.934-18.891-47.765-98.891h14.258s17.31-8.27 33.668-8.168c16.358 0.103 33.306 8.168 33.306 8.168zm-33.36 5.013c-9.165 0.136-19.14 3.428-26.281 6.126-3.186 1.203-7.487 2.042-7.487 2.042-1.906 53.361 33.768 69.186 33.768 69.186s35.674-15.825 33.768-69.186c0 0-4.301-0.838-7.487-2.042-7.141-2.698-17.116-5.989-26.281-6.126zm27.642 37.987h-27.642l-0.015 38.388c19.035-10.006 27.657-38.388 27.657-38.388zm-55.131-1h24.382v-33.039s-4.874 0-9.094 1.225-13.466 5.51-19.078 6.48c0 0-0.429 8.334 3.79 25.334z"
     id="path4307"
     style="fill:#9c3bbe;fill-opacity:1" /></svg>