<?xml version="1.0" encoding="UTF-8" standalone="no"?>
<svg
   xmlns:dc="http://purl.org/dc/elements/1.1/"
   xmlns:cc="http://creativecommons.org/ns#"
   xmlns:rdf="http://www.w3.org/1999/02/22-rdf-syntax-ns#"
   xmlns:svg="http://www.w3.org/2000/svg"
   xmlns="http://www.w3.org/2000/svg"
   xmlns:sodipodi="http://sodipodi.sourceforge.net/DTD/sodipodi-0.dtd"
   xmlns:inkscape="http://www.inkscape.org/namespaces/inkscape"
   enable-background="new 0 0 128 128"
   version="1.1"
   viewBox="0 0 143.96913 149.01021"
   xml:space="preserve"
   id="svg2"
   inkscape:version="0.91 r13725"
   sodipodi:docname="UNGORO_EPIC.svg"
   width="143.96912"
   height="149.01021"><metadata
     id="metadata10"><rdf:RDF><cc:Work
         rdf:about=""><dc:format>image/svg+xml</dc:format><dc:type
           rdf:resource="http://purl.org/dc/dcmitype/StillImage" /><dc:title></dc:title></cc:Work></rdf:RDF></metadata><defs
     id="defs8" /><sodipodi:namedview
     pagecolor="#ffffff"
     bordercolor="#666666"
     borderopacity="1"
     objecttolerance="10"
     gridtolerance="10"
     guidetolerance="10"
     inkscape:pageopacity="0"
     inkscape:pageshadow="2"
     inkscape:window-width="1920"
     inkscape:window-height="1001"
     id="namedview6"
     showgrid="false"
     inkscape:zoom="1.84375"
     inkscape:cx="-26.566298"
     inkscape:cy="74.505198"
     inkscape:window-x="0"
     inkscape:window-y="36"
     inkscape:window-maximized="1"
     inkscape:current-layer="svg2"
     fit-margin-top="17.5"
     fit-margin-left="22"
     fit-margin-right="13"
     fit-margin-bottom="17.5" /><path
     d="m 103.08455,20.216994 c 0,0 0.849,27.679 -11.886,40.074 -12.735,12.395 -15.246,17.518 -15.622,19.528 -0.509,2.717 2.717,7.472 7.132,7.302 4.415,-0.17 11.547,-8.83 16.471,-10.019 4.924,-1.189 22.515,0.809 31.754,-2.887 0.849,-0.34 -13.585,26.829006 -33.792,32.094006 -5.758,1.5 -10.102,3.183 -13.924,5.094 -9.849,4.924 -17.489,3.849 -27.339,7.132 -3.566,1.189 -10.019,18.169 -23.943,11.377 -15.791,-7.703 -8.49,-18.849 -6.622,-24.622 1.868,-5.773001 0,-5.943001 -1.019,-10.868006 -1.019,-4.925 2.038,-15.962 0.849,-21.905 -1.189,-5.943 -3.396,-12.226 -1.358,-22.415 2.038,-10.189 9.339,-30.565 12.735,-32.602 0,0 1.189,6.962 3.566,12.396 2.377,5.434 6.113,9.679 6.283,12.566 0.17,2.887 -3.137,20.845 0,24.962 2.717,3.566 6.113,2.717 9,-0.17 2.887,-2.887 8.49,-12.566 12.056,-20.886 3.229,-7.535 20.207,-24.793 35.659,-26.151 z"
     id="path4"
     style="fill:#9c3bbe;fill-opacity:1"
     inkscape:connector-curvature="0" /></svg>